<svg xmlns="http://www.w3.org/2000/svg" xmlns:xlink="http://www.w3.org/1999/xlink" xmlns:svgjs="http://svgjs.com/svgjs" width="45" height="45" x="0" y="0" viewBox="0 0 512 512" style="enable-background:new 0 0 512 512" xml:space="preserve" class=""><g><path xmlns="http://www.w3.org/2000/svg" d="m469.015625 358.269531h-426.03125c-19.597656 0-35.484375-15.882812-35.484375-35.480469v-279.804687c0-19.597656 15.886719-35.484375 35.484375-35.484375h426.03125c19.597656 0 35.484375 15.886719 35.484375 35.484375v279.804687c0 19.597657-15.886719 35.480469-35.484375 35.480469zm0 0" fill="#495059" data-original="#495059"></path><path xmlns="http://www.w3.org/2000/svg" d="m148.558594 7.5h-105.574219c-19.597656 0-35.484375 15.886719-35.484375 35.484375v279.804687c0 19.597657 15.886719 35.484376 35.484375 35.484376h188.207031c-79.175781-108.441407-83.246094-252.800782-82.632812-350.773438zm0 0" fill="#41464f" data-original="#41464f" class=""></path><path xmlns="http://www.w3.org/2000/svg" d="m48.609375 278.070312v-216.308593c0-7.261719 5.890625-13.152344 13.15625-13.152344h388.472656c7.261719 0 13.152344 5.890625 13.152344 13.152344v216.308593zm0 0" fill="#f6e06a" data-original="#f6e06a" class=""></path><path xmlns="http://www.w3.org/2000/svg" d="m48.609375 61.761719v216.308593h138.742187c-30.605468-76.734374-37.445312-160.273437-38.625-229.460937h-86.960937c-7.265625 0-13.15625 5.890625-13.15625 13.152344zm0 0" fill="#f2d068" data-original="#f2d068"></path><path xmlns="http://www.w3.org/2000/svg" d="m469.015625 358.269531h-426.03125c-19.597656 0-35.484375-15.882812-35.484375-35.480469v-44.71875h497v44.71875c0 19.597657-15.886719 35.480469-35.484375 35.480469zm0 0" fill="#ebecec" data-original="#ebecec"></path><path xmlns="http://www.w3.org/2000/svg" d="m7.5 278.070312v44.71875c0 19.597657 15.886719 35.484376 35.484375 35.484376h188.207031c-18.359375-25.144532-32.683594-52.21875-43.84375-80.203126zm0 0" fill="#dadbdb" data-original="#dadbdb"></path><path xmlns="http://www.w3.org/2000/svg" d="m275.527344 318.171875c0 10.785156-8.742188 19.527344-19.527344 19.527344s-19.527344-8.742188-19.527344-19.527344 8.742188-19.527344 19.527344-19.527344 19.527344 8.742188 19.527344 19.527344zm0 0" fill="#495059" data-original="#495059"></path><path xmlns="http://www.w3.org/2000/svg" d="m310.132812 358.269531h-108.265624l-14.15625 59.957031h136.578124zm0 0" fill="#dadbdb" data-original="#dadbdb"></path><path xmlns="http://www.w3.org/2000/svg" d="m343.222656 448.800781h-174.445312c-5.816406 0-10.53125-4.714843-10.53125-10.53125v-9.511719c0-5.816406 4.714844-10.535156 10.53125-10.535156h174.445312c5.816406 0 10.535156 4.714844 10.535156 10.535156v9.511719c-.003906 5.816407-4.71875 10.53125-10.535156 10.53125zm0 0" fill="#bebfc0" data-original="#bebfc0"></path><path xmlns="http://www.w3.org/2000/svg" d="m187.261719 142.175781h-76.65625c-8.210938 0-14.867188-6.65625-14.867188-14.867187v-17.449219c0-8.210937 6.65625-14.867187 14.867188-14.867187h76.65625c8.210937 0 14.867187 6.65625 14.867187 14.867187v17.449219c0 8.210937-6.65625 14.867187-14.867187 14.867187zm0 0" fill="#83d4ad" data-original="#83d4ad"></path><path xmlns="http://www.w3.org/2000/svg" d="m150.453125 94.992188h-39.847656c-8.210938 0-14.867188 6.65625-14.867188 14.867187v17.449219c0 8.210937 6.65625 14.867187 14.867188 14.867187h43.996093c-1.894531-16.023437-3.230468-31.8125-4.148437-47.183593zm0 0" fill="#72c29b" data-original="#72c29b" class=""></path><path xmlns="http://www.w3.org/2000/svg" d="m187.261719 211.839844h-76.65625c-8.210938 0-14.867188-6.65625-14.867188-14.867188v-17.449218c0-8.210938 6.65625-14.867188 14.867188-14.867188h76.65625c8.210937 0 14.867187 6.65625 14.867187 14.867188v17.449218c0 8.210938-6.65625 14.867188-14.867187 14.867188zm0 0" fill="#eb8d9a" data-original="#eb8d9a"></path><path xmlns="http://www.w3.org/2000/svg" d="m157.628906 164.65625h-47.023437c-8.210938 0-14.867188 6.65625-14.867188 14.867188v17.449218c0 8.210938 6.65625 14.867188 14.867188 14.867188h56.078125c-3.714844-15.753906-6.679688-31.535156-9.054688-47.183594zm0 0" fill="#d67c88" data-original="#d67c88"></path><path xmlns="http://www.w3.org/2000/svg" d="m345.402344 131.1875h-81.578125c-4.292969 0-7.859375 3.308594-8.179688 7.589844l-5.886719 78.664062c-.128906 1.71875-.515624 3.40625-1.15625 5.007813l-4.25 10.671875c-1.679687 4.214844 1.425782 8.789062 5.960938 8.789062h108.601562c4.535157 0 7.640626-4.574218 5.960938-8.789062l-4.25-10.671875c-.640625-1.601563-1.027344-3.289063-1.15625-5.007813l-5.886719-78.664062c-.320312-4.28125-3.886719-7.589844-8.179687-7.589844zm0 0" fill="#caa58b" data-original="#caa58b"></path><path xmlns="http://www.w3.org/2000/svg" d="m332.894531 221.457031h-38.320312c-4.140625 0-7.5-3.355469-7.5-7.5 0-4.140625 3.359375-7.5 7.5-7.5h38.320312c4.144531 0 7.5 3.359375 7.5 7.5 0 4.144531-3.359375 7.5-7.5 7.5zm0 0" fill="#bd977a" data-original="#bd977a"></path><path xmlns="http://www.w3.org/2000/svg" d="m419.707031 206.023438-25.730469 7.050781c-2.660156.730469-4.738281 2.808593-5.464843 5.46875l-7.054688 25.730469c-1.972656 7.203124-11.964843 7.789062-14.769531.867187l-27.085938-66.8125c-3.609374-8.902344 5.257813-17.773437 14.164063-14.164063l66.8125 27.089844c6.921875 2.804688 6.332031 12.792969-.871094 14.769532zm0 0" fill="#495059" data-original="#495059"></path><path xmlns="http://www.w3.org/2000/svg" d="m228.972656 318.171875c0 14.902344 12.125 27.027344 27.027344 27.027344s27.027344-12.125 27.027344-27.027344-12.125-27.027344-27.027344-27.027344-27.027344 12.125-27.027344 27.027344zm39.054688 0c0 6.632813-5.394532 12.027344-12.027344 12.027344s-12.027344-5.394531-12.027344-12.027344 5.394532-12.027344 12.027344-12.027344 12.027344 5.394531 12.027344 12.027344zm200.992187-318.171875h-426.039062c-23.699219 0-42.980469 19.28125-42.980469 42.980469v33.21875c0 4.144531 3.355469 7.5 7.5 7.5s7.5-3.355469 7.5-7.5v-33.21875c0-15.429688 12.554688-27.980469 27.980469-27.980469h426.035156c15.429687 0 27.984375 12.550781 27.984375 27.980469v227.589843h-26.109375v-208.808593c0-11.386719-9.265625-20.652344-20.65625-20.652344h-388.46875c-11.390625 0-20.65625 9.265625-20.65625 20.652344v208.808593h-26.109375v-158.691406c0-4.140625-3.355469-7.5-7.5-7.5s-7.5 3.359375-7.5 7.5v210.910156c0 23.699219 19.28125 42.984376 42.980469 42.984376h149.410156l-10.613281 44.953124h-13c-9.941406 0-18.03125 8.085938-18.03125 18.03125v9.511719c0 9.941407 8.089844 18.03125 18.03125 18.03125h174.445312c9.941406 0 18.03125-8.089843 18.03125-18.03125v-9.511719c0-9.945312-8.089844-18.03125-18.03125-18.03125h-13l-10.613281-44.953124h92.785156c4.140625 0 7.5-3.359376 7.5-7.5 0-4.144532-3.359375-7.5-7.5-7.5h-369.414062c-15.429688 0-27.980469-12.554688-27.980469-27.984376v-37.21875h482v37.21875c0 15.429688-12.554688 27.984376-27.980469 27.984376h-21.03125c-4.140625 0-7.5 3.355468-7.5 7.5 0 4.140624 3.359375 7.5 7.5 7.5h21.03125c23.699219 0 42.980469-19.285157 42.980469-42.984376v-279.808593c0-23.699219-19.28125-42.980469-42.980469-42.980469zm-144.753906 425.726562h.015625.023438 18.917968c1.671875 0 3.03125 1.359376 3.03125 3.03125v9.511719c0 1.671875-1.359375 3.03125-3.03125 3.03125h-174.445312c-1.671875 0-3.03125-1.359375-3.03125-3.03125v-9.511719c0-1.671874 1.359375-3.03125 3.03125-3.03125h18.914062.027344.015625zm-116.460937-59.953124h96.390624l10.617188 44.953124h-117.625zm248.085937-95.203126h-399.78125v-208.808593c0-3.117188 2.535156-5.652344 5.652344-5.652344h388.472656c3.117187 0 5.65625 2.535156 5.65625 5.652344zm-32.496094-86.269531-60.726562-24.617187-1.605469-21.464844c-.609375-8.148438-7.488281-14.53125-15.660156-14.53125h-7.882813l-2.636719-26.144531c-1.371093-13.589844-12.707031-23.835938-26.363281-23.835938h-7.808593c-13.65625 0-24.992188 10.246094-26.363282 23.835938l-2.636718 26.144531h-7.886719c-8.167969 0-15.046875 6.382812-15.65625 14.53125l-5.886719 78.667969c-.070312.953125-.289062 1.890625-.644531 2.785156l-4.25 10.671875c-1.710938 4.292969-1.1875 9.136719 1.40625 12.960938 2.59375 3.824218 6.898437 6.105468 11.519531 6.105468h108.601562c.492188 0 .980469-.039062 1.460938-.089844 2.636719 5.082032 7.734375 8.199219 13.5 8.199219.316406 0 .632812-.007812.949219-.027343 6.660156-.394532 12.105469-4.804688 13.867187-11.238282l4.820313-17.574218 18.027343 18.03125c1.46875 1.464843 3.386719 2.195312 5.304688 2.195312 1.921875 0 3.839844-.730469 5.304688-2.195312 2.929687-2.929688 2.929687-7.679688 0-10.605469l-18.03125-18.03125 17.574218-4.816407c6.433594-1.765624 10.84375-7.207031 11.238282-13.867187.386718-6.660156-3.351563-12.582031-9.535157-15.089844zm-134.125-85.25c.597657-5.898437 5.515625-10.34375 11.441407-10.34375h7.804687c5.925781 0 10.84375 4.445313 11.441406 10.34375l2.484375 24.636719h-35.660156zm-37.359375 135.359375 3.660156-9.183594c.921876-2.316406 1.484376-4.746093 1.667969-7.226562l5.886719-78.664062c.027344-.363282.332031-.648438.699219-.648438h66.894531.007812.011719 14.664063c.363281 0 .671875.285156.699218.648438l1.246094 16.632812c-3.933594.492188-7.667968 2.289062-10.660156 5.285156-5.3125 5.308594-6.859375 12.933594-4.035156 19.894532l21.59375 53.261718zm165.988282-35.6875s-.042969.03125-.171876.066406l-25.730468 7.054688c-2.417969.660156-4.59375 1.910156-6.378906 3.578125-.136719.117187-.273438.230469-.402344.359375-.128906.132812-.246094.269531-.363282.40625-1.664062 1.785156-2.914062 3.957031-3.574218 6.375l-7.054688 25.726562c-.03125.121094-.0625.171876-.0625.171876-.085937.0625-.351562.078124-.433594.027343 0 0-.039062-.039062-.089843-.164062l-2.445313-6.03125c-.003906-.011719-.011718-.023438-.015625-.035157l-24.625-60.746093c-.730469-1.800781.148438-3.0625.738281-3.652344.433594-.433594 1.222657-1.019531 2.316407-1.019531.40625 0 .851562.082031 1.339843.277344l66.8125 27.085937c.113282.046875.15625.082031.160157.082031.058593.09375.042969.359375-.019531.4375zm-230.636719-111.230468h-76.65625c-12.335938 0-22.367188 10.035156-22.367188 22.367187v17.449219c0 12.332031 10.03125 22.367187 22.367188 22.367187h76.65625c12.335937 0 22.367187-10.035156 22.367187-22.367187v-17.449219c0-12.332031-10.03125-22.367187-22.367187-22.367187zm7.367187 39.816406c0 4.0625-3.304687 7.367187-7.367187 7.367187h-76.65625c-4.0625 0-7.367188-3.304687-7.367188-7.367187v-17.449219c0-4.0625 3.304688-7.367187 7.367188-7.367187h76.65625c4.0625 0 7.367187 3.304687 7.367187 7.367187zm-7.367187 29.847656h-76.65625c-12.335938 0-22.367188 10.035156-22.367188 22.367188v17.449218c0 12.332032 10.03125 22.367188 22.367188 22.367188h76.65625c12.335937 0 22.367187-10.035156 22.367187-22.367188v-17.449218c0-12.332032-10.03125-22.367188-22.367187-22.367188zm7.367187 39.816406c0 4.0625-3.304687 7.367188-7.367187 7.367188h-76.65625c-4.0625 0-7.367188-3.304688-7.367188-7.367188v-17.449218c0-4.0625 3.304688-7.367188 7.367188-7.367188h76.65625c4.0625 0 7.367187 3.304688 7.367187 7.367188zm0 0" fill="#000000" data-original="#000000" class=""></path></g></svg>